<?xml version="1.0" standalone="no"?>
<!DOCTYPE svg PUBLIC "-//W3C//DTD SVG 20010904//EN"
 "http://www.w3.org/TR/2001/REC-SVG-20010904/DTD/svg10.dtd">
<svg version="1.0" xmlns="http://www.w3.org/2000/svg"
 width="524.000000pt" height="524.000000pt" viewBox="0 0 524.000000 524.000000"
 preserveAspectRatio="xMidYMid meet">
<metadata>
Created by potrace 1.11, written by Peter Selinger 2001-2013
</metadata>
<g transform="translate(0.000000,524.000000) scale(0.100000,-0.100000)"
fill="#000000" stroke="none">
<path d="M2549 4228 c0 -13 0 -107 -1 -210 -1 -166 -3 -188 -17 -188 -9 -1
-92 -3 -186 -5 -146 -3 -275 -10 -415 -20 -119 -9 -198 -16 -220 -20 -14 -2
-52 -6 -85 -10 -58 -6 -94 -11 -105 -15 -3 -1 -8 -2 -13 -1 -4 1 -46 -6 -93
-14 -129 -22 -119 -28 -118 68 0 46 3 88 7 93 3 6 91 9 206 9 111 0 201 2 201
5 0 5 -431 220 -442 220 -3 0 -4 -94 -4 -210 l1 -210 -55 -10 c-99 -20 -342
-82 -376 -96 -34 -14 -36 -13 -225 81 -105 52 -197 95 -205 95 -12 0 -14 -36
-13 -211 1 -206 0 -211 -23 -247 -42 -64 -57 -115 -54 -183 3 -87 26 -131 113
-215 l73 -71 -1 -109 c-1 -122 -5 -148 -22 -137 -14 9 -167 11 -167 3 0 -4 43
-48 95 -99 l96 -93 -2 -119 c-1 -67 -6 -116 -11 -113 -13 8 -169 11 -173 3 -4
-6 85 -101 148 -157 l37 -33 -2 -121 -3 -121 -93 2 -94 2 26 -33 c14 -18 44
-50 68 -70 24 -20 57 -48 73 -63 38 -32 143 -102 215 -143 50 -28 200 -92 225
-96 5 -1 15 -4 20 -8 14 -8 212 -57 260 -63 22 -3 49 -7 60 -10 11 -2 52 -7
90 -10 39 -4 78 -9 88 -11 20 -6 18 -13 21 99 0 49 -2 91 -7 94 -4 2 -24 6
-45 8 -94 10 -227 30 -262 40 -12 4 -15 26 -15 115 0 104 3 116 29 111 5 -1
25 -4 45 -6 20 -2 63 -7 96 -11 33 -4 82 -8 110 -8 l50 -1 0 93 c1 50 -2 92
-5 93 -3 0 -23 2 -45 5 -79 9 -200 27 -255 39 -25 5 -25 6 -25 113 l0 107 35
-2 c19 -1 45 -4 58 -7 13 -3 53 -8 90 -11 37 -4 84 -8 105 -10 20 -2 38 -1 38
3 4 22 5 169 1 179 -2 7 -14 12 -25 12 -25 -2 -84 6 -172 22 -33 6 -73 13 -89
15 -16 2 -31 6 -35 9 -3 4 -6 67 -6 141 0 151 -6 143 83 120 29 -8 55 -14 57
-14 7 0 86 -14 110 -19 45 -10 315 -51 380 -58 28 -3 66 -7 85 -10 64 -8 168
-16 395 -31 255 -17 733 -7 990 21 33 3 76 8 95 10 84 8 144 17 280 40 183 31
188 32 288 55 46 11 88 20 93 20 6 0 8 -57 7 -142 l-3 -142 -35 -7 c-40 -9
-101 -17 -180 -25 -85 -8 -81 -3 -78 -106 l3 -93 30 1 c70 2 226 20 253 29 9
3 12 -23 12 -110 0 -103 -2 -115 -17 -116 -10 0 -25 -2 -33 -4 -42 -9 -72 -14
-136 -21 -38 -4 -73 -8 -79 -9 -5 -1 -16 -3 -22 -3 -10 -2 -13 -29 -13 -98 l0
-95 73 6 c40 3 83 7 96 10 13 2 48 7 77 11 l54 6 0 -115 0 -115 -62 -11 c-125
-21 -162 -26 -210 -29 l-28 -2 0 -101 c0 -55 3 -98 8 -96 4 3 43 8 88 11 44 4
89 8 100 10 10 2 39 7 64 11 92 14 272 64 345 95 191 81 339 176 464 296 l86
84 -85 0 c-62 0 -92 -4 -108 -16 -13 -9 -26 -14 -29 -11 -3 3 -6 60 -7 127 -1
115 0 122 21 136 31 19 193 181 193 191 0 4 -35 8 -78 7 -56 -1 -86 -6 -105
-19 -32 -20 -29 -33 -29 124 l0 105 53 45 c64 55 159 151 159 162 0 12 -174 3
-178 -10 -5 -15 -29 -14 -34 2 -2 6 -3 72 -3 145 2 129 2 133 26 149 13 9 47
40 75 69 110 114 106 260 -11 377 l-36 36 3 88 3 88 105 2 c58 1 152 3 210 3
l105 1 -225 113 c-124 63 -227 110 -230 106 -3 -5 -5 -87 -4 -184 1 -97 -3
-179 -7 -182 -5 -3 -16 1 -23 9 -57 57 -441 203 -636 242 -31 6 -132 34 -135
37 -10 9 -7 141 3 147 6 4 101 6 212 6 110 0 200 1 200 2 0 2 -103 54 -229
117 l-229 115 1 -185 c0 -193 -4 -215 -42 -194 -9 4 -41 11 -71 16 -30 4 -57
8 -60 9 -3 1 -30 5 -60 10 -30 5 -57 9 -60 10 -3 1 -36 5 -75 9 -38 5 -77 9
-85 11 -14 2 -126 13 -215 21 -89 8 -317 17 -420 18 -88 1 -111 4 -116 16 -3
8 -5 51 -5 95 l1 80 203 2 c112 1 205 3 207 5 5 4 12 0 -252 132 -180 90 -193
95 -194 74z m341 -522 c25 -2 65 -5 90 -5 65 -2 74 -10 61 -57 -5 -21 -12 -50
-15 -64 -3 -14 -24 -99 -46 -190 -23 -91 -44 -176 -46 -190 -3 -13 -14 -63
-26 -110 -11 -47 -21 -93 -22 -102 -1 -10 -5 -20 -8 -24 -10 -9 -653 -8 -654
2 -1 18 -17 130 -20 149 -7 36 -19 115 -29 185 -2 14 -8 57 -14 95 -6 39 -13
86 -16 105 -2 19 -7 46 -9 60 -3 14 -8 47 -11 74 -3 27 -8 52 -11 57 -3 5 -2
9 3 10 4 0 57 3 118 5 60 3 111 6 112 7 3 4 496 -3 543 -7z m-909 -32 c6 -8 9
-14 6 -14 -3 0 -1 -15 4 -32 6 -18 12 -42 15 -53 2 -11 6 -29 9 -40 2 -11 11
-45 19 -75 8 -30 17 -66 20 -80 3 -14 16 -68 30 -120 14 -52 27 -106 30 -120
3 -14 12 -50 21 -80 31 -111 31 -110 -17 -111 -155 -4 -347 -28 -503 -64 -14
-3 -26 5 -42 30 -13 19 -23 37 -23 40 0 3 -5 11 -10 18 -28 33 -360 599 -355
607 4 7 89 26 160 35 36 5 179 27 197 30 9 2 48 7 85 10 37 4 77 9 88 11 11 2
58 7 105 10 47 4 86 7 88 9 10 8 63 1 73 -11z m1329 1 c36 -3 79 -7 95 -10 17
-2 57 -7 90 -10 33 -4 74 -9 90 -11 17 -3 46 -7 65 -10 19 -2 46 -6 60 -9 14
-3 41 -7 60 -10 19 -2 46 -7 60 -10 14 -2 49 -9 79 -15 30 -5 56 -11 57 -13 6
-6 -9 -47 -17 -47 -5 0 -9 -4 -9 -9 0 -5 -18 -39 -40 -75 -22 -36 -40 -68 -40
-71 0 -3 -5 -11 -11 -18 -11 -13 -197 -324 -207 -347 -4 -8 -22 -38 -41 -67
-30 -45 -37 -50 -57 -43 -13 5 -47 11 -76 14 -29 3 -71 8 -93 11 -60 9 -332
27 -392 27 -41 0 -41 6 -3 126 27 84 50 161 56 187 1 6 10 33 19 60 10 28 19
55 20 60 1 6 5 17 8 25 8 22 29 89 31 103 3 15 34 112 48 149 9 24 14 26 46
23 21 -3 66 -7 102 -10z m-2624 -107 c3 -4 -6 -13 -22 -20 -16 -7 -32 -17 -36
-23 -4 -5 -8 -7 -8 -3 0 9 -80 -37 -140 -81 -24 -17 -46 -31 -49 -31 -3 0 -6
36 -6 80 0 62 3 80 15 82 30 6 239 2 246 -4z m398 -20 c4 4 6 2 4 -4 -4 -12
132 -214 144 -214 5 0 6 -4 3 -10 -3 -5 -1 -10 4 -10 6 0 11 -6 11 -13 0 -8 9
-22 20 -32 11 -10 20 -24 20 -32 0 -7 3 -13 8 -13 4 0 23 -25 42 -55 19 -30
38 -55 41 -55 4 0 9 -8 13 -17 3 -10 24 -43 46 -73 68 -93 100 -141 100 -150
0 -5 -11 -12 -25 -16 -23 -6 -26 -18 -7 -20 14 -1 117 -16 137 -20 11 -2 45
-7 75 -10 30 -3 69 -7 85 -9 72 -9 223 -21 385 -31 140 -9 715 -9 860 -1 130
8 233 16 285 22 22 2 65 7 95 10 109 12 195 25 244 35 22 5 43 7 47 4 4 -2 10
0 14 6 4 6 11 7 17 4 6 -4 8 -3 5 3 -6 10 -115 39 -130 35 -11 -3 -7 4 87 138
44 63 94 135 110 160 17 25 36 51 42 57 7 7 22 29 35 50 13 21 26 40 29 43 4
3 15 20 25 38 11 17 23 32 27 32 4 0 8 6 8 14 0 8 3 16 8 18 4 2 24 29 46 60
29 43 43 55 58 53 36 -7 131 -36 178 -53 25 -9 47 -17 50 -17 3 -1 34 -16 68
-34 273 -140 238 -357 -79 -500 -80 -36 -229 -83 -334 -106 -44 -10 -87 -20
-95 -23 -8 -2 -25 -6 -38 -8 -12 -1 -46 -7 -75 -13 -28 -6 -68 -13 -87 -15
-19 -3 -46 -8 -59 -10 -12 -3 -44 -8 -70 -11 -25 -4 -55 -8 -66 -9 -82 -12
-127 -18 -161 -21 -88 -8 -171 -16 -211 -20 -119 -13 -269 -18 -568 -19 -343
0 -468 5 -700 30 -27 3 -70 7 -95 9 -25 2 -58 6 -75 9 -16 2 -52 7 -80 11 -27
4 -61 9 -75 11 -110 18 -209 35 -230 39 -14 2 -50 10 -80 16 -30 6 -91 20
-135 31 -44 11 -84 21 -90 23 -5 1 -19 5 -30 9 -78 30 -96 36 -100 35 -3 0
-49 21 -103 47 -128 62 -204 136 -223 218 -19 87 7 142 109 228 18 14 32 24
32 22 0 -2 26 9 58 25 52 27 140 58 267 94 29 9 55 11 61 6 6 -5 14 -5 18 -1z
m3397 -755 c1 -5 2 -68 3 -141 l1 -133 -40 -18 c-86 -40 -112 -50 -175 -71
-36 -11 -72 -24 -80 -27 -30 -12 -48 -12 -52 0 -2 6 -4 72 -4 146 l1 135 60
18 c33 11 65 20 70 22 18 5 49 17 75 29 14 6 27 11 30 12 3 1 17 5 33 9 15 5
27 12 27 17 0 11 50 12 51 2z m-3774 -24 c26 -11 91 -34 143 -50 52 -17 102
-34 110 -38 12 -6 15 -33 17 -122 1 -63 0 -124 -3 -136 l-4 -22 -68 23 c-95
33 -223 85 -247 100 -18 12 -20 23 -19 137 1 68 2 125 3 127 3 6 23 0 68 -19z
m-7 -463 c30 -16 105 -48 165 -71 l110 -41 2 -102 c2 -60 -1 -104 -8 -107 -13
-9 -136 35 -291 102 -21 9 -39 19 -39 22 -4 20 -3 231 1 228 3 -1 30 -15 60
-31z m3785 -101 l0 -110 -74 -32 c-96 -43 -250 -95 -264 -90 -13 4 -18 183 -6
208 5 9 21 19 36 22 15 3 42 11 58 18 17 7 35 13 40 14 28 7 165 69 165 75 0
4 10 7 22 6 22 -1 23 -4 23 -111z m-3763 -332 c40 -20 114 -51 163 -68 l90
-31 1 -112 c1 -82 -2 -112 -11 -112 -13 0 -66 16 -100 30 -11 4 -51 20 -90 35
-38 15 -76 31 -82 37 -7 6 -13 7 -13 4 0 -4 -10 0 -22 8 -21 15 -23 24 -23
131 0 63 3 115 7 115 4 0 40 -17 80 -37z m3762 -95 l1 -111 -30 -18 c-16 -10
-42 -21 -57 -24 -15 -4 -28 -11 -28 -17 0 -6 -2 -9 -6 -6 -3 3 -28 -3 -57 -14
-29 -11 -79 -28 -112 -38 l-61 -17 1 116 0 116 33 10 c17 5 32 13 32 18 0 4 4
6 9 3 11 -7 147 44 228 85 20 10 39 16 42 14 2 -3 5 -55 5 -117z"/>
<path d="M2536 3473 c-1 -2 -29 -4 -62 -5 l-59 -3 -1 -60 c0 -33 1 -65 3 -71
4 -10 99 -10 188 0 17 2 35 4 42 5 7 1 10 19 8 54 -2 28 -4 59 -4 68 -1 12
-13 16 -57 15 -31 -1 -57 -2 -58 -3z"/>
<path d="M1739 3426 c-2 -3 -23 -7 -44 -10 -22 -2 -40 -5 -40 -6 0 -2 -38 -10
-63 -12 -18 -2 -22 -7 -18 -28 5 -24 33 -134 41 -156 2 -8 17 -9 47 -4 24 5
61 11 83 14 67 10 95 17 95 24 0 4 -11 45 -23 92 -20 76 -25 85 -48 88 -13 2
-27 1 -30 -2z"/>
<path d="M3251 3413 c-17 -72 -19 -83 -13 -84 4 0 14 -2 22 -4 8 -2 33 -6 55
-10 22 -3 48 -8 57 -11 10 -3 30 -7 45 -10 16 -3 53 -9 83 -15 112 -22 128
-19 163 28 17 24 28 45 26 48 -3 2 -24 7 -48 10 -24 3 -47 8 -52 11 -5 3 -19
7 -32 10 -30 5 -53 10 -107 23 -25 5 -58 12 -75 15 -16 3 -46 10 -65 16 -49
14 -48 14 -59 -27z"/>
<path d="M1594 2330 c-12 -5 -23 -17 -26 -27 -2 -10 -3 -286 -3 -614 l1 -597
40 -37 c84 -80 152 -105 267 -100 162 9 244 45 293 131 11 18 27 19 397 20
l385 0 16 -33 c32 -66 161 -132 271 -138 53 -3 150 17 165 34 3 4 16 12 30 19
14 7 42 28 64 47 21 19 42 35 46 35 5 0 12 10 16 23 4 12 7 289 7 615 0 624 0
615 -43 623 -8 2 -49 -1 -90 -5 -41 -5 -86 -10 -100 -11 -14 -1 -56 -5 -95
-10 -316 -35 -904 -40 -1225 -10 -25 2 -74 6 -110 9 -36 4 -78 8 -95 10 -16 2
-59 7 -95 11 -36 3 -72 8 -80 10 -8 2 -25 0 -36 -5z m116 -65 c36 -3 76 -8 90
-10 14 -1 59 -6 100 -10 41 -4 88 -9 103 -10 165 -20 700 -27 932 -13 120 8
416 35 464 43 14 2 44 5 66 7 l40 3 0 -579 0 -578 -39 -34 c-54 -47 -134 -84
-198 -91 -68 -7 -134 13 -203 63 l-50 35 -1 298 c0 163 -4 302 -8 309 -5 9
-116 12 -447 12 -241 0 -440 -3 -440 -7 -1 -5 -3 -144 -4 -311 -1 -251 -4
-305 -16 -313 -8 -5 -48 -20 -89 -34 -158 -52 -257 -43 -338 30 l-47 43 -1
573 c0 316 1 577 4 582 2 4 6 6 10 3 4 -2 36 -7 72 -11z"/>
<path d="M2474 2045 c-129 -27 -214 -103 -225 -200 l-4 -30 324 -3 324 -2 -7
31 c-31 155 -215 246 -412 204z"/>
</g>
</svg>
